#!OML:ASF G:\ViconDB\ViconDB\414\test\team2\shane.ASF
:FULLY-SPECIFIED
:DEGREES
267
root 0.725503 16.5511 8.30637 -9.84956 10.1437 -6.73166
lowerback 7.46962 -1.06284 5.5312
upperback 7.27454 -1.242 6.07159
thorax 3.42599 -0.524201 3.28357
lowerneck -2.10193 -8.80144 -11.1868
upperneck 44.6562 -6.35327 -11.8199
head 16.8507 -5.76495 -4.23152
rclavicle 2.5842e-015 3.18055e-015
rhumerus -11.9169 2.84552 -43.2456
rradius 117.475
rwrist 158.033
rhand -13.9917 19.2831
rfingers 7.12502
rthumb 12.1371 -10.3449
lclavicle 2.5842e-015 3.18055e-015
lhumerus -46.3914 -32.7716 103.498
lradius 41.273
lwrist -14.6885
lhand -39.9166 5.86012
lfingers 7.12502
lthumb -12.8874 35.4422
rfemur 0.50078 -19.9171 20.4604
rtibia 38.2511
rfoot -25.9484 0.459118
rtoes -12.6554
lfemur -10.1238 6.22829 -3.47047
ltibia 69.8268
lfoot -20.9825 -6.78792
ltoes -12.7478
268
root 0.708874 16.5765 8.48581 -9.78824 10.1177 -6.49324
lowerback 7.48676 -0.981093 5.33277
upperback 7.28623 -1.14042 5.99546
thorax 3.4265 -0.479923 3.30943
lowerneck -1.81648 -9.03884 -11.5084
upperneck 44.7532 -6.5657 -12.1169
head 16.8574 -5.93503 -4.33919
rclavicle 2.5842e-015 3.18055e-015
rhumerus -11.9169 2.84552 -43.2456
rradius 117.475
rwrist 158.033
rhand -13.9917 19.2831
rfingers 7.12502
rthumb 12.1371 -10.3449
lclavicle 2.5842e-015 3.18055e-015
lhumerus -46.3914 -32.7716 103.498
lradius 41.273
lwrist -14.6885
lhand -39.9166 5.86012
lfingers 7.12502
lthumb -12.8874 35.4422
rfemur 1.63127 -19.6129 20.2377
rtibia 37.2796
rfoot -25.9017 0.274171
rtoes -13.2263
lfemur -11.0043 6.71111 -4.29396
ltibia 68.3647
lfoot -21.8193 -6.16315
ltoes -12.4516
269
root 0.699234 16.6151 8.66575 -9.68211 9.98929 -6.15445
lowerback 7.48045 -0.77719 5.10551
upperback 7.26012 -0.876667 5.89976
thorax 3.39543 -0.355487 3.32264
lowerneck -1.61016 -9.36566 -11.7206
upperneck 44.8814 -6.87002 -12.5319
head 16.8814 -6.14003 -4.5381
rclavicle 2.5842e-015 3.18055e-015
rhumerus -11.9169 2.84552 -43.2456
rradius 117.475
rwrist 158.033
rhand -13.9917 19.2831
rfingers 7.12502
rthumb 12.1371 -10.3449
lclavicle 2.5842e-015 3.18055e-015
lhumerus -46.3914 -32.7716 103.498
lradius 41.273
lwrist -14.6885
lhand -39.9166 5.86012
lfingers 7.12502
lthumb -12.8874 35.4422
rfemur 2.73466 -18.9249 19.9508
rtibia 36.2183
rfoot -25.7458 0.38016
rtoes -12.7457
lfemur -11.7424 7.19887 -5.22679
ltibia 66.6131
lfoot -22.6567 -5.35437
ltoes -13.0458
270
root 0.689798 16.6427 8.84244 -9.62472 9.84832 -5.96509
lowerback 7.47832 -0.622068 5.03045
upperback 7.26102 -0.673669 5.88083
thorax 3.39268 -0.256393 3.33525
lowerneck -1.4918 -9.62458 -12.0759
upperneck 44.8792 -7.08846 -12.8328
head 16.875 -6.31689 -4.64351
rclavicle 2.5842e-015 3.18055e-015
rhumerus -11.9169 2.84552 -43.2456
rradius 117.475
rwrist 158.033
rhand -13.9917 19.2831
rfingers 7.12502
rthumb 12.1371 -10.3449
lclavicle 2.5842e-015 3.18055e-015
lhumerus -46.3914 -32.7716 103.498
lradius 41.273
lwrist -14.6885
lhand -39.9166 5.86012
lfingers 7.12502
lthumb -12.8874 35.4422
rfemur 3.92388 -18.4646 19.8298
rtibia 35.0862
rfoot -25.4722 -0.00296312
rtoes -13.8952
lfemur -12.4682 7.60309 -6.03362
ltibia 64.6995
lfoot -23.568 -4.54943
ltoes -12.534
271
root 0.69074 16.6837 9.01835 -9.46705 9.62342 -5.62616
lowerback 7.64752 -0.417224 4.74389
upperback 7.15899 -0.393443 5.98794
thorax 3.18534 -0.133299 3.59455
lowerneck -1.55734 -9.87419 -12.7933
upperneck 44.8664 -7.24728 -13.0081
head 16.961 -6.50991 -4.65005
rclavicle 2.5842e-015 3.18055e-015
rhumerus -11.9169 2.84552 -43.2456
rradius 117.475
rwrist 158.033
rhand -13.9917 19.2831
rfingers 7.12502
rthumb 12.1371 -10.3449
lclavicle 2.5842e-015 3.18055e-015
lhumerus -46.3914 -32.7716 103.498
lradius 41.273
lwrist -14.6885
lhand -39.9166 5.86012
lfingers 7.12502
lthumb -12.8874 35.4422
rfemur 5.05226 -18.0017 19.4829
rtibia 33.8959
rfoot -25.3039 0.237648
rtoes -13.1698
lfemur -13.169 7.91977 -6.9876
ltibia 62.5799
lfoot -24.2178 -4.17363
ltoes -13.0359
272
root 0.688925 16.7303 9.19524 -9.19196 9.32003 -5.23974
lowerback 7.54029 -0.268097 4.58597
upperback 7.13524 -0.207613 5.71278
thorax 3.20964 -0.0401667 3.3828
lowerneck -1.5296 -10.0118 -12.8187
upperneck 44.4704 -7.51495 -12.9565
head 16.7195 -6.61583 -4.60006
rclavicle 2.5842e-015 3.18055e-015
rhumerus -11.9169 2.84552 -43.2456
rradius 117.475
rwrist 158.033
rhand -13.9917 19.2831
rfingers 7.12502
rthumb 12.1371 -10.3449
lclavicle 2.5842e-015 3.18055e-015
lhumerus -46.3914 -32.7716 103.498
lradius 41.273
lwrist -14.6885
lhand -39.9166 5.86012
lfingers 7.12502
lthumb -12.8874 35.4422
rfemur 6.00189 -17.4629 19.1203
rtibia 32.6664
rfoot -24.7473 0.622117
rtoes -12.8769
lfemur -13.8583 8.29948 -7.95015
ltibia 60.2419
lfoot -24.7615 -4.11627
ltoes -12.4387
273
root 0.682972 16.7669 9.37576 -8.98811 8.90061 -4.85902
lowerback 7.67085 -0.0650304 4.26144
upperback 6.99555 0.0674233 5.62533
thorax 2.97855 0.0837845 3.45615
lowerneck -1.56116 -10.1147 -13.2217
upperneck 44.1247 -7.67289 -12.8352
head 16.58 -6.72476 -4.46811
rclavicle 2.5842e-015 3.18055e-015
rhumerus -11.9169 2.84552 -43.2456
rradius 117.475
rwrist 158.033
rhand -13.9917 19.2831
rfingers 7.12502
rthumb 12.1371 -10.3449
lclavicle 2.5842e-015 3.18055e-015
lhumerus -46.3914 -32.7716 103.498
lradius 41.273
lwrist -14.6885
lhand -39.9166 5.86012
lfingers 7.12502
lthumb -12.8874 35.4422
rfemur 7.11647 -16.854 18.818
rtibia 31.3578
rfoot -24.2912 0.516002
rtoes -13.4821
lfemur -14.415 8.66793 -8.80854
ltibia 57.7688
lfoot -25.1933 -4.27748
ltoes -12.5862
274
root 0.682963 16.8233 9.55275 -8.77766 8.49786 -4.646
lowerback 7.79282 0.153043 4.06507
upperback 6.97715 0.35859 5.56411
thorax 2.88009 0.222413 3.48567
lowerneck -1.99325 -10.2843 -13.3857
upperneck 43.7301 -7.93944 -12.6301
head 16.4814 -6.83478 -4.37345
rclavicle 2.5842e-015 3.18055e-015
rhumerus -11.9169 2.84552 -43.2456
rradius 117.475
rwrist 158.033
rhand -13.9917 19.2831
rfingers 7.12502
rthumb 12.1371 -10.3449
lclavicle 2.5842e-015 3.18055e-015
lhumerus -46.3914 -32.7716 103.498
lradius 41.273
lwrist -14.6885
lhand -39.9166 5.86012
lfingers 7.12502
lthumb -12.8874 35.4422
rfemur 8.12415 -16.073 18.7146
rtibia 29.9947
rfoot -23.6278 0.888771
rtoes -12.7268
lfemur -14.9259 8.96646 -9.44036
ltibia 55.0909
lfoot -25.5979 -4.83899
ltoes -12.4192
275
root 0.685297 16.8619 9.73127 -8.55795 7.96126 -4.38229
lowerback 7.81076 0.332366 3.94783
upperback 6.90759 0.597415 5.38054
thorax 2.78749 0.34047 3.34388
lowerneck -2.14649 -10.2852 -13.5565
upperneck 43.125 -8.11972 -12.1716
head 16.2168 -6.87492 -4.10691
rclavicle 2.5842e-015 3.18055e-015
rhumerus -11.9169 2.84552 -43.2456
rradius 117.475
rwrist 158.033
rhand -13.9917 19.2831
rfingers 7.12502
rthumb 12.1371 -10.3449
lclavicle 2.5842e-015 3.18055e-015
lhumerus -46.3914 -32.7716 103.498
lradius 41.273
lwrist -14.6885
lhand -39.9166 5.86012
lfingers 7.12502
lthumb -12.8874 35.4422
rfemur 9.29945 -15.9475 18.3911
rtibia 28.4947
rfoot -23.0236 1.04674
rtoes -13.6728
lfemur -15.4004 9.27322 -10.0269
ltibia 52.3822
lfoot -25.8997 -5.83615
ltoes -12.3529
276
root 0.683502 16.9001 9.91521 -8.29724 7.3655 -4.19028
lowerback 7.8383 0.476775 3.82019
upperback 6.71396 0.796522 5.23723
thorax 2.56049 0.436005 3.24946
lowerneck -2.27464 -10.2487 -13.7489
upperneck 42.6022 -8.16333 -11.9105
head 15.9947 -6.88665 -3.91986
rclavicle 2.5842e-015 3.18055e-015
rhumerus -11.9169 2.84552 -43.2456
rradius 117.475
rwrist 158.033
rhand -13.9917 19.2831
rfingers 7.12502
rthumb 12.1371 -10.3449
lclavicle 2.5842e-015 3.18055e-015
lhumerus -46.3914 -32.7716 103.498
lradius 41.273
lwrist -14.6885
lhand -39.9166 5.86012
lfingers 7.12502
lthumb -12.8874 35.4422
rfemur 10.4251 -15.4305 18.2798
rtibia 26.9274
rfoot -22.4968 1.09957
rtoes -13.7783
lfemur -15.853 9.54089 -10.5075
ltibia 49.5663
lfoot -26.1634 -6.80526
ltoes -12.1622
277
root 0.683069 16.9369 10.0954 -8.01786 6.74797 -3.98811
lowerback 8.26515 0.624558 3.63925
upperback 6.36007 1.03425 5.11748
thorax 1.94312 0.546238 3.19793
lowerneck -2.39477 -10.1376 -13.9794
upperneck 41.9933 -8.144 -11.5252
head 15.7392 -6.85948 -3.6583
rclavicle 2.5842e-015 3.18055e-015
rhumerus -11.9169 2.84552 -43.2456
rradius 117.475
rwrist 158.033
rhand -13.9917 19.2831
rfingers 7.12502
rthumb 12.1371 -10.3449
lclavicle 2.5842e-015 3.18055e-015
lhumerus -46.3914 -32.7716 103.498
lradius 41.273
lwrist -14.6885
lhand -39.9166 5.86012
lfingers 7.12502
lthumb -12.8874 35.4422
rfemur 11.5594 -14.8381 18.1655
rtibia 25.2266
rfoot -21.919 1.30197
rtoes -14.1931
lfemur -16.3288 9.9107 -10.9329
ltibia 46.8087
lfoot -26.473 -7.99826
ltoes -12.4796
278
root 0.68763 16.9721 10.2772 -7.68402 6.02265 -3.82518
lowerback 8.38151 0.861537 3.59149
upperback 6.1494 1.36552 4.92744
thorax 1.65046 0.711423 2.99722
lowerneck -2.5884 -10.103 -14.152
upperneck 41.2809 -8.33648 -10.8784
head 15.4537 -6.87658 -3.32125
rclavicle 2.5842e-015 3.18055e-015
rhumerus -11.9169 2.84552 -43.2456
rradius 117.475
rwrist 158.033
rhand -13.9917 19.2831
rfingers 7.12502
rthumb 12.1371 -10.3449
lclavicle 2.5842e-015 3.18055e-015
lhumerus -46.3914 -32.7716 103.498
lradius 41.273
lwrist -14.6885
lhand -39.9166 5.86012
lfingers 7.12502
lthumb -12.8874 35.4422
rfemur 12.6416 -14.1851 18.0699
rtibia 23.4481
rfoot -21.3026 1.64787
rtoes -13.4576
lfemur -16.8519 10.2346 -11.3139
ltibia 44.1077
lfoot -27.0122 -9.03134
ltoes -12.765
279
root 0.686495 16.9944 10.4648 -7.41343 5.32136 -3.63178
lowerback 8.46649 1.03357 3.3258
upperback 5.99481 1.59012 4.7758
thorax 1.43111 0.816404 2.96676
lowerneck -2.91944 -9.96292 -14.4282
upperneck 40.4723 -8.38468 -10.086
head 15.1758 -6.82736 -2.89846
rclavicle 2.5842e-015 3.18055e-015
rhumerus -11.9169 2.84552 -43.2456
rradius 117.475
rwrist 158.033
rhand -13.9917 19.2831
rfingers 7.12502
rthumb 12.1371 -10.3449
lclavicle 2.5842e-015 3.18055e-015
lhumerus -46.3914 -32.7716 103.498
lradius 41.273
lwrist -14.6885
lhand -39.9166 5.86012
lfingers 7.12502
lthumb -12.8874 35.4422
rfemur 13.9145 -13.654 17.9154
rtibia 21.5208
rfoot -20.703 1.90853
rtoes -13.007
lfemur -17.3498 10.7533 -11.6198
ltibia 41.5869
lfoot -27.6877 -10.5297
ltoes -12.5005
280
root 0.692824 17.0083 10.6455 -7.09854 4.59323 -3.54067
lowerback 8.56721 1.20337 3.21692
upperback 5.83908 1.82163 4.66612
thorax 1.20576 0.92895 2.89053
lowerneck -3.23466 -9.83635 -14.278
upperneck 39.3572 -8.38333 -9.75127
head 14.6826 -6.73928 -2.69578
rclavicle 2.5842e-015 3.18055e-015
rhumerus -11.9169 2.84552 -43.2456
rradius 117.475
rwrist 158.033
rhand -13.9917 19.2831
rfingers 7.12502
rthumb 12.1371 -10.3449
lclavicle 2.5842e-015 3.18055e-015
lhumerus -46.3914 -32.7716 103.498
lradius 41.273
lwrist -14.6885
lhand -39.9166 5.86012
lfingers 7.12502
lthumb -12.8874 35.4422
rfemur 15.1618 -13.4938 17.7623
rtibia 19.5278
rfoot -20.0892 2.25701
rtoes -13.368
lfemur -18.0088 10.9391 -11.8109
ltibia 39.2335
lfoot -28.1374 -11.7681
ltoes -12.4517
281
root 0.696935 17.0197 10.8291 -6.74801 3.82042 -3.54842
lowerback 8.56721 1.20337 3.21692
upperback 5.83908 1.82163 4.66612
thorax 1.20576 0.92895 2.89053
lowerneck -3.23466 -9.83635 -14.278
upperneck 39.3572 -8.38333 -9.75127
head 14.6826 -6.73928 -2.69578
rclavicle 2.5842e-015 3.18055e-015
rhumerus -11.9169 2.84552 -43.2456
rradius 117.475
rwrist 158.033
rhand -13.9917 19.2831
rfingers 7.12502
rthumb 12.1371 -10.3449
lclavicle 2.5842e-015 3.18055e-015
lhumerus -46.3914 -32.7716 103.498
lradius 41.273
lwrist -14.6885
lhand -39.9166 5.86012
lfingers 7.12502
lthumb -12.8874 35.4422
rfemur 16.4183 -13.0692 17.8622
rtibia 17.338
rfoot -19.4125 2.20267
rtoes -13.873
lfemur -18.7566 11.2645 -11.8466
ltibia 37.155
lfoot -28.674 -12.9594
ltoes -12.9355
